<svg xmlns="http://www.w3.org/2000/svg" xmlns:xlink="http://www.w3.org/1999/xlink" width="2000" zoomAndPan="magnify" viewBox="0 0 1500 374.999991" height="500" preserveAspectRatio="xMidYMid meet" version="1.0"><defs><g/><clipPath id="1391c7d737"><rect x="0" width="886" y="0" height="256"/></clipPath><clipPath id="7caf0a86f9"><rect x="0" width="424" y="0" height="42"/></clipPath></defs><g transform="matrix(1, 0, 0, 1, 310, 48)"><g clip-path="url(#1391c7d737)"><g fill="#f9f8f7" fill-opacity="1"><g transform="translate(0.171873, 210.021135)"><g><path d="M 43.21875 2.09375 C 39.71875 2.09375 36.8125 1.425781 34.5 0.09375 C 32.195312 -1.226562 31.046875 -4.265625 31.046875 -9.015625 C 31.046875 -9.015625 31.046875 -9.890625 31.046875 -11.640625 C 31.046875 -13.390625 31.078125 -15.414062 31.140625 -17.71875 C 31.210938 -20.03125 31.25 -22.097656 31.25 -23.921875 C 31.394531 -30.210938 31.5 -36.46875 31.5625 -42.6875 C 31.632812 -48.914062 31.671875 -54.753906 31.671875 -60.203125 C 31.671875 -68.453125 31.738281 -77.050781 31.875 -86 C 32.019531 -94.957031 31.8125 -104.117188 31.25 -113.484375 L 31.046875 -117.0625 C 31.046875 -120.976562 30.453125 -123.703125 29.265625 -125.234375 C 28.078125 -126.773438 26.1875 -127.71875 23.59375 -128.0625 C 21.007812 -128.414062 17.617188 -128.59375 13.421875 -128.59375 C 9.222656 -128.59375 6.351562 -129.082031 4.8125 -130.0625 C 3.28125 -131.039062 2.441406 -132.296875 2.296875 -133.828125 C 2.160156 -135.367188 2.09375 -136.984375 2.09375 -138.671875 C 2.09375 -141.328125 2.96875 -143.492188 4.71875 -145.171875 C 6.46875 -146.847656 8.320312 -147.6875 10.28125 -147.6875 C 21.75 -147.6875 33.003906 -147.648438 44.046875 -147.578125 C 55.097656 -147.503906 64.960938 -147.46875 73.640625 -147.46875 C 76.296875 -147.46875 78.390625 -146.664062 79.921875 -145.0625 C 81.460938 -143.457031 82.234375 -141.816406 82.234375 -140.140625 C 82.234375 -138.453125 81.53125 -136.347656 80.125 -133.828125 C 78.726562 -131.316406 76.210938 -129.710938 72.578125 -129.015625 C 69.085938 -128.316406 66.429688 -127.929688 64.609375 -127.859375 C 62.796875 -127.785156 60.910156 -127.613281 58.953125 -127.34375 C 56.296875 -126.914062 54.507812 -126.070312 53.59375 -124.8125 C 52.6875 -123.5625 52.234375 -121.742188 52.234375 -119.359375 C 52.234375 -117.398438 52.195312 -114.53125 52.125 -110.75 C 52.0625 -106.976562 51.992188 -102.992188 51.921875 -98.796875 C 51.847656 -94.609375 51.773438 -90.765625 51.703125 -87.265625 C 51.640625 -83.773438 51.609375 -81.257812 51.609375 -79.71875 L 52.234375 -10.28125 C 52.234375 -5.945312 51.601562 -2.800781 50.34375 -0.84375 C 49.082031 1.113281 46.707031 2.09375 43.21875 2.09375 Z M 43.21875 2.09375 "/></g></g></g><g fill="#f9f8f7" fill-opacity="1"><g transform="translate(67.715355, 210.021135)"><g><path d="M 63.5625 0 C 60.0625 0 57.472656 -0.414062 55.796875 -1.25 C 54.117188 -2.09375 52.863281 -3.566406 52.03125 -5.671875 C 50.207031 -3.984375 47.441406 -2.6875 43.734375 -1.78125 C 40.035156 -0.875 36.785156 -0.421875 33.984375 -0.421875 C 25.171875 -0.421875 18.351562 -3.566406 13.53125 -9.859375 C 8.707031 -16.148438 6.296875 -25.03125 6.296875 -36.5 C 6.296875 -44.332031 7.625 -51.007812 10.28125 -56.53125 C 12.9375 -62.0625 16.46875 -66.296875 20.875 -69.234375 C 25.28125 -72.171875 30.070312 -73.640625 35.25 -73.640625 C 39.300781 -73.640625 42.582031 -72.972656 45.09375 -71.640625 C 47.613281 -70.304688 49.644531 -69.222656 51.1875 -68.390625 C 51.1875 -78.878906 50.171875 -86.816406 48.140625 -92.203125 C 46.117188 -97.585938 42.660156 -100.28125 37.765625 -100.28125 C 34.128906 -100.28125 31.503906 -98.632812 29.890625 -95.34375 C 28.285156 -92.0625 27.484375 -88.601562 27.484375 -84.96875 C 27.484375 -82.445312 26.535156 -80.59375 24.640625 -79.40625 C 22.753906 -78.21875 20.414062 -77.625 17.625 -77.625 C 10.769531 -77.625 7.34375 -80.421875 7.34375 -86.015625 C 7.34375 -95.097656 9.894531 -102.578125 15 -108.453125 C 20.101562 -114.328125 27.691406 -117.265625 37.765625 -117.265625 C 46.992188 -117.265625 54.019531 -115.097656 58.84375 -110.765625 C 63.664062 -106.429688 66.878906 -100.03125 68.484375 -91.5625 C 70.097656 -83.101562 70.625 -72.507812 70.0625 -59.78125 C 70.0625 -43.695312 70.269531 -31.566406 70.6875 -23.390625 C 71.113281 -15.210938 71.46875 -10.769531 71.75 -10.0625 C 72.03125 -9.363281 72.171875 -8.695312 72.171875 -8.0625 C 72.171875 -7.4375 72.171875 -6.914062 72.171875 -6.5 C 72.171875 -4.539062 71.398438 -2.96875 69.859375 -1.78125 C 68.316406 -0.59375 66.21875 0 63.5625 0 Z M 37.546875 -18.046875 C 41.742188 -18.046875 44.539062 -19.828125 45.9375 -23.390625 C 47.34375 -26.953125 48.046875 -31.742188 48.046875 -37.765625 C 48.046875 -43.078125 47.378906 -47.550781 46.046875 -51.1875 C 44.710938 -54.820312 42.09375 -56.640625 38.1875 -56.640625 C 33.425781 -56.640625 29.960938 -54.820312 27.796875 -51.1875 C 25.628906 -47.550781 24.546875 -42.9375 24.546875 -37.34375 C 24.546875 -31.75 25.628906 -27.132812 27.796875 -23.5 C 29.960938 -19.863281 33.210938 -18.046875 37.546875 -18.046875 Z M 37.546875 -18.046875 "/></g></g></g><g fill="#f9f8f7" fill-opacity="1"><g transform="translate(146.167346, 210.021135)"><g><path d="M 42.375 0.203125 C 34.6875 0.203125 28.359375 -1.644531 23.390625 -5.34375 C 18.421875 -9.050781 14.535156 -13.875 11.734375 -19.8125 C 8.941406 -25.757812 6.988281 -32.195312 5.875 -39.125 C 4.757812 -46.050781 4.203125 -52.800781 4.203125 -59.375 C 4.203125 -72.789062 5.878906 -83.941406 9.234375 -92.828125 C 12.585938 -101.710938 17.09375 -108.351562 22.75 -112.75 C 28.414062 -117.15625 34.609375 -119.359375 41.328125 -119.359375 C 45.523438 -119.359375 48.707031 -118.660156 50.875 -117.265625 C 53.039062 -115.867188 54.125 -115.171875 54.125 -115.171875 L 53.703125 -136.140625 C 53.703125 -139.359375 54.503906 -142.085938 56.109375 -144.328125 C 57.722656 -146.566406 60.628906 -147.6875 64.828125 -147.6875 C 69.015625 -147.6875 71.84375 -146.601562 73.3125 -144.4375 C 74.78125 -142.269531 75.515625 -139.578125 75.515625 -136.359375 C 75.515625 -133.554688 75.476562 -130.195312 75.40625 -126.28125 C 75.34375 -122.375 75.238281 -118.492188 75.09375 -114.640625 C 74.957031 -110.796875 74.851562 -107.507812 74.78125 -104.78125 C 74.71875 -102.050781 74.6875 -100.335938 74.6875 -99.640625 C 74.6875 -94.609375 74.753906 -88.664062 74.890625 -81.8125 C 75.035156 -74.957031 75.140625 -68.140625 75.203125 -61.359375 C 75.273438 -54.578125 75.3125 -48.878906 75.3125 -44.265625 C 75.3125 -32.378906 73.910156 -23.253906 71.109375 -16.890625 C 68.316406 -10.523438 64.472656 -6.082031 59.578125 -3.5625 C 54.679688 -1.050781 48.945312 0.203125 42.375 0.203125 Z M 42.375 -17.40625 C 47.269531 -17.40625 50.726562 -20.550781 52.75 -26.84375 C 54.78125 -33.144531 55.796875 -44.125 55.796875 -59.78125 C 55.796875 -70.832031 55.34375 -79.296875 54.4375 -85.171875 C 53.53125 -91.046875 52.0625 -95.097656 50.03125 -97.328125 C 48 -99.566406 45.164062 -100.6875 41.53125 -100.6875 C 36.78125 -100.6875 32.96875 -97.015625 30.09375 -89.671875 C 27.226562 -82.335938 25.796875 -72.238281 25.796875 -59.375 C 25.796875 -52.375 26.492188 -45.65625 27.890625 -39.21875 C 29.296875 -32.789062 31.222656 -27.546875 33.671875 -23.484375 C 36.117188 -19.429688 39.019531 -17.40625 42.375 -17.40625 Z M 42.375 -17.40625 "/></g></g></g><g fill="#f9f8f7" fill-opacity="1"><g transform="translate(227.97566, 210.021135)"><g><path d="M 63.5625 0 C 60.0625 0 57.472656 -0.414062 55.796875 -1.25 C 54.117188 -2.09375 52.863281 -3.566406 52.03125 -5.671875 C 50.207031 -3.984375 47.441406 -2.6875 43.734375 -1.78125 C 40.035156 -0.875 36.785156 -0.421875 33.984375 -0.421875 C 25.171875 -0.421875 18.351562 -3.566406 13.53125 -9.859375 C 8.707031 -16.148438 6.296875 -25.03125 6.296875 -36.5 C 6.296875 -44.332031 7.625 -51.007812 10.28125 -56.53125 C 12.9375 -62.0625 16.46875 -66.296875 20.875 -69.234375 C 25.28125 -72.171875 30.070312 -73.640625 35.25 -73.640625 C 39.300781 -73.640625 42.582031 -72.972656 45.09375 -71.640625 C 47.613281 -70.304688 49.644531 -69.222656 51.1875 -68.390625 C 51.1875 -78.878906 50.171875 -86.816406 48.140625 -92.203125 C 46.117188 -97.585938 42.660156 -100.28125 37.765625 -100.28125 C 34.128906 -100.28125 31.503906 -98.632812 29.890625 -95.34375 C 28.285156 -92.0625 27.484375 -88.601562 27.484375 -84.96875 C 27.484375 -82.445312 26.535156 -80.59375 24.640625 -79.40625 C 22.753906 -78.21875 20.414062 -77.625 17.625 -77.625 C 10.769531 -77.625 7.34375 -80.421875 7.34375 -86.015625 C 7.34375 -95.097656 9.894531 -102.578125 15 -108.453125 C 20.101562 -114.328125 27.691406 -117.265625 37.765625 -117.265625 C 46.992188 -117.265625 54.019531 -115.097656 58.84375 -110.765625 C 63.664062 -106.429688 66.878906 -100.03125 68.484375 -91.5625 C 70.097656 -83.101562 70.625 -72.507812 70.0625 -59.78125 C 70.0625 -43.695312 70.269531 -31.566406 70.6875 -23.390625 C 71.113281 -15.210938 71.46875 -10.769531 71.75 -10.0625 C 72.03125 -9.363281 72.171875 -8.695312 72.171875 -8.0625 C 72.171875 -7.4375 72.171875 -6.914062 72.171875 -6.5 C 72.171875 -4.539062 71.398438 -2.96875 69.859375 -1.78125 C 68.316406 -0.59375 66.21875 0 63.5625 0 Z M 37.546875 -18.046875 C 41.742188 -18.046875 44.539062 -19.828125 45.9375 -23.390625 C 47.34375 -26.953125 48.046875 -31.742188 48.046875 -37.765625 C 48.046875 -43.078125 47.378906 -47.550781 46.046875 -51.1875 C 44.710938 -54.820312 42.09375 -56.640625 38.1875 -56.640625 C 33.425781 -56.640625 29.960938 -54.820312 27.796875 -51.1875 C 25.628906 -47.550781 24.546875 -42.9375 24.546875 -37.34375 C 24.546875 -31.75 25.628906 -27.132812 27.796875 -23.5 C 29.960938 -19.863281 33.210938 -18.046875 37.546875 -18.046875 Z M 37.546875 -18.046875 "/></g></g></g><g fill="#f9f8f7" fill-opacity="1"><g transform="translate(306.427651, 210.021135)"><g><path d="M 40.90625 0.203125 C 34.46875 0.203125 28.628906 -1.050781 23.390625 -3.5625 C 18.148438 -6.082031 14.023438 -10.523438 11.015625 -16.890625 C 8.003906 -23.253906 6.5 -32.378906 6.5 -44.265625 C 6.5 -48.878906 6.566406 -54.578125 6.703125 -61.359375 C 6.847656 -68.140625 6.953125 -74.957031 7.015625 -81.8125 C 7.085938 -88.664062 7.125 -94.609375 7.125 -99.640625 C 7.125 -100.335938 7.085938 -102.050781 7.015625 -104.78125 C 6.953125 -107.507812 6.847656 -110.796875 6.703125 -114.640625 C 6.566406 -118.492188 6.460938 -122.375 6.390625 -126.28125 C 6.328125 -130.195312 6.296875 -133.554688 6.296875 -136.359375 C 6.296875 -139.578125 7.097656 -142.269531 8.703125 -144.4375 C 10.316406 -146.601562 13.566406 -147.6875 18.453125 -147.6875 C 22.648438 -147.6875 25.550781 -146.566406 27.15625 -144.328125 C 28.769531 -142.085938 29.578125 -139.359375 29.578125 -136.140625 L 29.15625 -115.171875 C 29.15625 -115.171875 30.238281 -115.867188 32.40625 -117.265625 C 34.570312 -118.660156 37.753906 -119.359375 41.953125 -119.359375 C 48.804688 -119.359375 55.03125 -117.15625 60.625 -112.75 C 66.21875 -108.351562 70.691406 -101.710938 74.046875 -92.828125 C 77.410156 -83.941406 79.09375 -72.789062 79.09375 -59.375 C 79.09375 -52.800781 78.53125 -46.050781 77.40625 -39.125 C 76.289062 -32.195312 74.332031 -25.757812 71.53125 -19.8125 C 68.738281 -13.875 64.859375 -9.050781 59.890625 -5.34375 C 54.921875 -1.644531 48.59375 0.203125 40.90625 0.203125 Z M 40.90625 -17.40625 C 44.257812 -17.40625 47.160156 -19.429688 49.609375 -23.484375 C 52.054688 -27.546875 53.976562 -32.789062 55.375 -39.21875 C 56.78125 -45.65625 57.484375 -52.375 57.484375 -59.375 C 57.484375 -72.238281 56.046875 -82.335938 53.171875 -89.671875 C 50.304688 -97.015625 46.5 -100.6875 41.75 -100.6875 C 38.25 -100.6875 35.445312 -99.566406 33.34375 -97.328125 C 31.25 -95.097656 29.75 -91.046875 28.84375 -85.171875 C 27.9375 -79.296875 27.484375 -70.832031 27.484375 -59.78125 C 27.484375 -44.125 28.492188 -33.144531 30.515625 -26.84375 C 32.546875 -20.550781 36.007812 -17.40625 40.90625 -17.40625 Z M 40.90625 -17.40625 "/></g></g></g><g fill="#f9f8f7" fill-opacity="1"><g transform="translate(389.704241, 210.021135)"><g><path d="M 40.90625 0.203125 C 34.46875 0.203125 28.628906 -1.050781 23.390625 -3.5625 C 18.148438 -6.082031 14.023438 -10.523438 11.015625 -16.890625 C 8.003906 -23.253906 6.5 -32.378906 6.5 -44.265625 C 6.5 -48.878906 6.566406 -54.578125 6.703125 -61.359375 C 6.847656 -68.140625 6.953125 -74.957031 7.015625 -81.8125 C 7.085938 -88.664062 7.125 -94.609375 7.125 -99.640625 C 7.125 -100.335938 7.085938 -102.050781 7.015625 -104.78125 C 6.953125 -107.507812 6.847656 -110.796875 6.703125 -114.640625 C 6.566406 -118.492188 6.460938 -122.375 6.390625 -126.28125 C 6.328125 -130.195312 6.296875 -133.554688 6.296875 -136.359375 C 6.296875 -139.578125 7.097656 -142.269531 8.703125 -144.4375 C 10.316406 -146.601562 13.566406 -147.6875 18.453125 -147.6875 C 22.648438 -147.6875 25.550781 -146.566406 27.15625 -144.328125 C 28.769531 -142.085938 29.578125 -139.359375 29.578125 -136.140625 L 29.15625 -115.171875 C 29.15625 -115.171875 30.238281 -115.867188 32.40625 -117.265625 C 34.570312 -118.660156 37.753906 -119.359375 41.953125 -119.359375 C 48.804688 -119.359375 55.03125 -117.15625 60.625 -112.75 C 66.21875 -108.351562 70.691406 -101.710938 74.046875 -92.828125 C 77.410156 -83.941406 79.09375 -72.789062 79.09375 -59.375 C 79.09375 -52.800781 78.53125 -46.050781 77.40625 -39.125 C 76.289062 -32.195312 74.332031 -25.757812 71.53125 -19.8125 C 68.738281 -13.875 64.859375 -9.050781 59.890625 -5.34375 C 54.921875 -1.644531 48.59375 0.203125 40.90625 0.203125 Z M 40.90625 -17.40625 C 44.257812 -17.40625 47.160156 -19.429688 49.609375 -23.484375 C 52.054688 -27.546875 53.976562 -32.789062 55.375 -39.21875 C 56.78125 -45.65625 57.484375 -52.375 57.484375 -59.375 C 57.484375 -72.238281 56.046875 -82.335938 53.171875 -89.671875 C 50.304688 -97.015625 46.5 -100.6875 41.75 -100.6875 C 38.25 -100.6875 35.445312 -99.566406 33.34375 -97.328125 C 31.25 -95.097656 29.75 -91.046875 28.84375 -85.171875 C 27.9375 -79.296875 27.484375 -70.832031 27.484375 -59.78125 C 27.484375 -44.125 28.492188 -33.144531 30.515625 -26.84375 C 32.546875 -20.550781 36.007812 -17.40625 40.90625 -17.40625 Z M 40.90625 -17.40625 "/></g></g></g><g fill="#f9f8f7" fill-opacity="1"><g transform="translate(472.980831, 210.021135)"><g><path d="M 69.015625 0.203125 C 65.523438 0.203125 63.078125 -0.804688 61.671875 -2.828125 C 60.273438 -4.859375 59.15625 -7.269531 58.3125 -10.0625 C 57.332031 -8.53125 55.617188 -6.992188 53.171875 -5.453125 C 50.734375 -3.910156 48.046875 -2.6875 45.109375 -1.78125 C 42.171875 -0.875 39.375 -0.421875 36.71875 -0.421875 C 25.382812 -0.421875 17.550781 -4.929688 13.21875 -13.953125 C 8.882812 -22.972656 6.71875 -36.015625 6.71875 -53.078125 C 6.71875 -55.453125 6.71875 -59.015625 6.71875 -63.765625 C 6.71875 -68.523438 6.679688 -73.664062 6.609375 -79.1875 C 6.535156 -84.71875 6.460938 -89.894531 6.390625 -94.71875 C 6.328125 -99.539062 6.296875 -103.210938 6.296875 -105.734375 C 6.148438 -110.066406 6.738281 -113.210938 8.0625 -115.171875 C 9.394531 -117.128906 11.8125 -118.109375 15.3125 -118.109375 C 18.8125 -118.109375 21.539062 -117.441406 23.5 -116.109375 C 25.457031 -114.785156 26.4375 -111.742188 26.4375 -106.984375 C 26.4375 -104.046875 26.363281 -99.953125 26.21875 -94.703125 C 26.082031 -89.460938 25.941406 -84.007812 25.796875 -78.34375 C 25.660156 -72.6875 25.523438 -67.617188 25.390625 -63.140625 C 25.242188 -49.160156 26.359375 -38.007812 28.734375 -29.6875 C 31.117188 -21.363281 34.828125 -17.203125 39.859375 -17.203125 C 45.316406 -17.203125 49.617188 -20.734375 52.765625 -27.796875 C 55.910156 -34.859375 57.484375 -46.640625 57.484375 -63.140625 C 57.484375 -68.035156 57.375 -74.429688 57.15625 -82.328125 C 56.945312 -90.234375 56.707031 -98.035156 56.4375 -105.734375 C 56.4375 -110.066406 57.0625 -113.210938 58.3125 -115.171875 C 59.570312 -117.128906 61.953125 -118.109375 65.453125 -118.109375 C 68.953125 -118.109375 71.675781 -117.441406 73.625 -116.109375 C 75.582031 -114.785156 76.5625 -111.742188 76.5625 -106.984375 C 76.5625 -106.984375 76.597656 -105.550781 76.671875 -102.6875 C 76.742188 -99.820312 76.707031 -96.988281 76.5625 -94.1875 C 76.5625 -84.539062 76.492188 -75.972656 76.359375 -68.484375 C 76.222656 -61.003906 76.15625 -54.191406 76.15625 -48.046875 C 76.15625 -43.847656 76.257812 -39.441406 76.46875 -34.828125 C 76.675781 -30.210938 76.847656 -25.457031 76.984375 -20.5625 L 77.625 -6.296875 C 77.757812 -4.335938 77.019531 -2.765625 75.40625 -1.578125 C 73.800781 -0.390625 71.671875 0.203125 69.015625 0.203125 Z M 69.015625 0.203125 "/></g></g></g><g fill="#f9f8f7" fill-opacity="1"><g transform="translate(556.886732, 210.021135)"><g><path d="M 18.046875 0.203125 C 14.546875 0.203125 11.816406 -0.457031 9.859375 -1.78125 C 7.898438 -3.113281 6.921875 -6.15625 6.921875 -10.90625 C 6.921875 -10.90625 6.882812 -12.375 6.8125 -15.3125 C 6.75 -18.25 6.785156 -21.046875 6.921875 -23.703125 C 6.921875 -33.359375 6.988281 -41.925781 7.125 -49.40625 C 7.269531 -56.882812 7.34375 -63.703125 7.34375 -69.859375 C 7.34375 -74.054688 7.304688 -78.492188 7.234375 -83.171875 C 7.160156 -87.859375 7.054688 -92.582031 6.921875 -97.34375 L 6.296875 -111.609375 C 6.148438 -113.566406 6.878906 -115.140625 8.484375 -116.328125 C 10.097656 -117.515625 12.234375 -118.109375 14.890625 -118.109375 C 18.390625 -118.109375 20.835938 -117.09375 22.234375 -115.0625 C 23.628906 -113.03125 24.75 -110.617188 25.59375 -107.828125 C 27.132812 -110.203125 30.035156 -112.472656 34.296875 -114.640625 C 38.566406 -116.804688 43.5 -117.613281 49.09375 -117.0625 C 53.425781 -116.5 56.46875 -115.378906 58.21875 -113.703125 C 59.96875 -112.023438 60.488281 -109.4375 59.78125 -105.9375 C 59.226562 -102.582031 58.078125 -100.414062 56.328125 -99.4375 C 54.578125 -98.457031 51.394531 -98.382812 46.78125 -99.21875 C 40.070312 -100.476562 34.929688 -97.503906 31.359375 -90.296875 C 27.796875 -83.097656 26.015625 -71.25 26.015625 -54.75 C 26.015625 -50 26.117188 -43.632812 26.328125 -35.65625 C 26.535156 -27.6875 26.78125 -19.859375 27.0625 -12.171875 C 27.0625 -7.835938 26.429688 -4.691406 25.171875 -2.734375 C 23.910156 -0.773438 21.535156 0.203125 18.046875 0.203125 Z M 18.046875 0.203125 "/></g></g></g><g fill="#e69b1c" fill-opacity="1"><g transform="translate(621.148394, 210.021135)"><g><path d="M 70.703125 -9.234375 C 71.253906 -8.109375 71.53125 -6.988281 71.53125 -5.875 C 71.53125 -3.78125 70.617188 -2.101562 68.796875 -0.84375 C 66.984375 0.414062 64.679688 1.046875 61.890625 1.046875 C 58.253906 1.046875 55.457031 0.554688 53.5 -0.421875 C 51.539062 -1.398438 49.722656 -3.21875 48.046875 -5.875 C 45.378906 -10.207031 42.679688 -14.644531 39.953125 -19.1875 C 37.234375 -23.738281 34.820312 -27.796875 32.71875 -31.359375 C 30.625 -34.929688 29.085938 -37.414062 28.109375 -38.8125 L 28.109375 -37.96875 C 28.109375 -35.445312 28.109375 -32.859375 28.109375 -30.203125 C 28.109375 -27.546875 28.179688 -24.820312 28.328125 -22.03125 C 28.460938 -20.625 28.53125 -18.800781 28.53125 -16.5625 C 28.53125 -14.332031 28.53125 -12.378906 28.53125 -10.703125 C 28.53125 -9.023438 28.53125 -8.1875 28.53125 -8.1875 C 28.53125 -5.25 27.96875 -3.007812 26.84375 -1.46875 C 25.726562 0.0703125 22.65625 0.84375 17.625 0.84375 C 13.707031 0.84375 10.910156 0.144531 9.234375 -1.25 C 7.554688 -2.65625 6.71875 -4.96875 6.71875 -8.1875 C 6.71875 -8.1875 6.71875 -9.023438 6.71875 -10.703125 C 6.71875 -12.378906 6.75 -14.332031 6.8125 -16.5625 C 6.882812 -18.800781 6.921875 -20.625 6.921875 -22.03125 C 7.054688 -26.925781 7.125 -31.644531 7.125 -36.1875 C 7.125 -40.726562 7.125 -45.097656 7.125 -49.296875 C 7.125 -55.867188 7.085938 -62.40625 7.015625 -68.90625 C 6.953125 -75.414062 6.921875 -82.304688 6.921875 -89.578125 C 6.921875 -98.109375 6.882812 -105.03125 6.8125 -110.34375 C 6.75 -115.65625 6.679688 -119.882812 6.609375 -123.03125 C 6.535156 -126.175781 6.460938 -128.691406 6.390625 -130.578125 C 6.328125 -132.472656 6.296875 -134.191406 6.296875 -135.734375 C 6.296875 -137.410156 6.503906 -139.117188 6.921875 -140.859375 C 7.335938 -142.609375 8.316406 -144.039062 9.859375 -145.15625 C 11.398438 -146.28125 13.847656 -146.84375 17.203125 -146.84375 C 22.515625 -146.84375 25.800781 -145.863281 27.0625 -143.90625 C 28.320312 -141.945312 28.953125 -139.847656 28.953125 -137.609375 C 28.953125 -135.515625 28.914062 -131.984375 28.84375 -127.015625 C 28.769531 -122.054688 28.695312 -116.601562 28.625 -110.65625 C 28.5625 -104.71875 28.460938 -99.085938 28.328125 -93.765625 L 28.109375 -79.5 C 28.804688 -80.757812 29.925781 -82.578125 31.46875 -84.953125 C 33.007812 -87.335938 34.6875 -89.960938 36.5 -92.828125 C 38.320312 -95.691406 40 -98.382812 41.53125 -100.90625 C 43.070312 -103.425781 44.265625 -105.3125 45.109375 -106.5625 C 46.222656 -108.25 47.410156 -109.859375 48.671875 -111.390625 C 49.929688 -112.929688 51.570312 -114.085938 53.59375 -114.859375 C 55.625 -115.628906 58.390625 -115.59375 61.890625 -114.75 C 63.421875 -114.46875 64.988281 -113.800781 66.59375 -112.75 C 68.207031 -111.707031 69.015625 -110.207031 69.015625 -108.25 C 69.015625 -107.269531 68.597656 -105.867188 67.765625 -104.046875 C 66.503906 -101.804688 63.703125 -97.710938 59.359375 -91.765625 C 55.023438 -85.828125 49.15625 -76.707031 41.75 -64.40625 C 40.625 -62.582031 40.269531 -61.039062 40.6875 -59.78125 C 41.113281 -58.53125 41.675781 -57.203125 42.375 -55.796875 C 46.289062 -49.085938 50.238281 -42.550781 54.21875 -36.1875 C 58.207031 -29.820312 61.707031 -24.257812 64.71875 -19.5 C 67.726562 -14.75 69.722656 -11.328125 70.703125 -9.234375 Z M 70.703125 -9.234375 "/></g></g></g><g fill="#e073a1" fill-opacity="1"><g transform="translate(694.859327, 210.021135)"><g><path d="M 17.625 -129.015625 C 15.800781 -129.015625 14.050781 -129.328125 12.375 -129.953125 C 10.695312 -130.585938 9.367188 -131.601562 8.390625 -133 C 6.847656 -135.800781 6.078125 -138.597656 6.078125 -141.390625 C 6.078125 -145.171875 7.269531 -147.898438 9.65625 -149.578125 C 10.488281 -150.128906 11.429688 -150.613281 12.484375 -151.03125 C 13.535156 -151.457031 14.617188 -151.671875 15.734375 -151.671875 C 17.273438 -151.671875 18.914062 -151.285156 20.65625 -150.515625 C 22.40625 -149.742188 24.191406 -148.171875 26.015625 -145.796875 C 27.410156 -143.984375 28.109375 -141.675781 28.109375 -138.875 C 28.109375 -137.613281 27.898438 -136.316406 27.484375 -134.984375 C 27.066406 -133.660156 26.367188 -132.507812 25.390625 -131.53125 C 24.679688 -130.695312 23.59375 -130.066406 22.125 -129.640625 C 20.65625 -129.222656 19.15625 -129.015625 17.625 -129.015625 Z M 17.625 0 C 10.488281 0 6.921875 -3.632812 6.921875 -10.90625 C 6.921875 -10.90625 6.921875 -12.335938 6.921875 -15.203125 C 6.921875 -18.078125 6.988281 -20.5625 7.125 -22.65625 C 7.269531 -27.550781 7.34375 -32.269531 7.34375 -36.8125 C 7.34375 -41.363281 7.34375 -45.804688 7.34375 -50.140625 C 7.34375 -56.710938 7.34375 -62.796875 7.34375 -68.390625 C 7.34375 -73.984375 7.269531 -80.414062 7.125 -87.6875 C 7.125 -90.488281 6.984375 -93.597656 6.703125 -97.015625 C 6.429688 -100.441406 6.296875 -103.695312 6.296875 -106.78125 C 6.296875 -108.59375 6.46875 -110.335938 6.8125 -112.015625 C 7.164062 -113.703125 8.109375 -115.101562 9.640625 -116.21875 C 11.179688 -117.332031 13.703125 -117.890625 17.203125 -117.890625 C 22.515625 -117.890625 25.800781 -116.875 27.0625 -114.84375 C 28.320312 -112.820312 28.953125 -110.832031 28.953125 -108.875 C 28.953125 -105.519531 28.8125 -101.953125 28.53125 -98.171875 C 28.25 -94.398438 28.109375 -90.90625 28.109375 -87.6875 L 28.109375 -55.59375 L 27.90625 -38.8125 C 27.90625 -36.289062 27.9375 -33.664062 28 -30.9375 C 28.070312 -28.21875 28.109375 -25.457031 28.109375 -22.65625 C 28.390625 -20.5625 28.53125 -18.078125 28.53125 -15.203125 C 28.53125 -12.335938 28.53125 -10.90625 28.53125 -10.90625 C 28.53125 -8.25 28.003906 -5.765625 26.953125 -3.453125 C 25.910156 -1.148438 22.800781 0 17.625 0 Z M 17.625 0 "/></g></g></g><g fill="#b7b340" fill-opacity="1"><g transform="translate(730.132762, 210.021135)"><g><path d="M 42.375 0.203125 C 34.6875 0.203125 28.359375 -1.644531 23.390625 -5.34375 C 18.421875 -9.050781 14.535156 -13.875 11.734375 -19.8125 C 8.941406 -25.757812 6.988281 -32.195312 5.875 -39.125 C 4.757812 -46.050781 4.203125 -52.800781 4.203125 -59.375 C 4.203125 -72.789062 5.878906 -83.941406 9.234375 -92.828125 C 12.585938 -101.710938 17.09375 -108.351562 22.75 -112.75 C 28.414062 -117.15625 34.609375 -119.359375 41.328125 -119.359375 C 45.523438 -119.359375 48.707031 -118.660156 50.875 -117.265625 C 53.039062 -115.867188 54.125 -115.171875 54.125 -115.171875 L 53.703125 -136.140625 C 53.703125 -139.359375 54.503906 -142.085938 56.109375 -144.328125 C 57.722656 -146.566406 60.628906 -147.6875 64.828125 -147.6875 C 69.015625 -147.6875 71.84375 -146.601562 73.3125 -144.4375 C 74.78125 -142.269531 75.515625 -139.578125 75.515625 -136.359375 C 75.515625 -133.554688 75.476562 -130.195312 75.40625 -126.28125 C 75.34375 -122.375 75.238281 -118.492188 75.09375 -114.640625 C 74.957031 -110.796875 74.851562 -107.507812 74.78125 -104.78125 C 74.71875 -102.050781 74.6875 -100.335938 74.6875 -99.640625 C 74.6875 -94.609375 74.753906 -88.664062 74.890625 -81.8125 C 75.035156 -74.957031 75.140625 -68.140625 75.203125 -61.359375 C 75.273438 -54.578125 75.3125 -48.878906 75.3125 -44.265625 C 75.3125 -32.378906 73.910156 -23.253906 71.109375 -16.890625 C 68.316406 -10.523438 64.472656 -6.082031 59.578125 -3.5625 C 54.679688 -1.050781 48.945312 0.203125 42.375 0.203125 Z M 42.375 -17.40625 C 47.269531 -17.40625 50.726562 -20.550781 52.75 -26.84375 C 54.78125 -33.144531 55.796875 -44.125 55.796875 -59.78125 C 55.796875 -70.832031 55.34375 -79.296875 54.4375 -85.171875 C 53.53125 -91.046875 52.0625 -95.097656 50.03125 -97.328125 C 48 -99.566406 45.164062 -100.6875 41.53125 -100.6875 C 36.78125 -100.6875 32.96875 -97.015625 30.09375 -89.671875 C 27.226562 -82.335938 25.796875 -72.238281 25.796875 -59.375 C 25.796875 -52.375 26.492188 -45.65625 27.890625 -39.21875 C 29.296875 -32.789062 31.222656 -27.546875 33.671875 -23.484375 C 36.117188 -19.429688 39.019531 -17.40625 42.375 -17.40625 Z M 42.375 -17.40625 "/></g></g></g><g fill="#43b18e" fill-opacity="1"><g transform="translate(812.046819, 210.021135)"><g><path d="M 31.671875 1.046875 C 26.773438 1.046875 22.226562 0 18.03125 -2.09375 C 13.84375 -4.195312 10.488281 -7.03125 7.96875 -10.59375 C 5.457031 -14.15625 4.203125 -17.96875 4.203125 -22.03125 C 4.203125 -27.0625 6.367188 -29.578125 10.703125 -29.578125 C 15.171875 -29.578125 18.523438 -27.617188 20.765625 -23.703125 C 22.867188 -19.648438 26.71875 -17.625 32.3125 -17.625 C 34.6875 -17.625 36.640625 -18.113281 38.171875 -19.09375 C 39.710938 -20.070312 40.484375 -21.257812 40.484375 -22.65625 C 40.484375 -23.5 40.203125 -24.546875 39.640625 -25.796875 C 39.085938 -27.054688 38.460938 -27.96875 37.765625 -28.53125 C 26.429688 -35.800781 18.175781 -43.140625 13 -50.546875 C 7.832031 -57.960938 5.25 -66.21875 5.25 -75.3125 C 5.25 -89.300781 8.113281 -99.929688 13.84375 -107.203125 C 19.582031 -114.472656 26.785156 -118.109375 35.453125 -118.109375 C 54.335938 -118.109375 63.78125 -106.289062 63.78125 -82.65625 C 63.78125 -80 63.566406 -77.375 63.140625 -74.78125 C 62.722656 -72.195312 62.09375 -69.015625 61.25 -65.234375 C 60.269531 -60.617188 57.265625 -58.3125 52.234375 -58.3125 C 49.015625 -58.3125 46.492188 -59.082031 44.671875 -60.625 C 42.859375 -62.164062 42.09375 -64.546875 42.375 -67.765625 C 42.65625 -70.140625 42.96875 -72.128906 43.3125 -73.734375 C 43.664062 -75.347656 43.84375 -77.898438 43.84375 -81.390625 C 43.84375 -86.429688 43.144531 -90.835938 41.75 -94.609375 C 40.351562 -98.390625 38.253906 -100.28125 35.453125 -100.28125 C 32.378906 -100.28125 29.894531 -98.210938 28 -94.078125 C 26.113281 -89.953125 25.171875 -85.023438 25.171875 -79.296875 C 25.171875 -74.546875 26.046875 -70.101562 27.796875 -65.96875 C 29.546875 -61.84375 31.957031 -58.382812 35.03125 -55.59375 C 38.382812 -52.519531 41.671875 -49.894531 44.890625 -47.71875 C 48.109375 -45.550781 50.972656 -43.421875 53.484375 -41.328125 C 56.003906 -39.234375 58.035156 -36.71875 59.578125 -33.78125 C 61.117188 -30.84375 61.890625 -26.925781 61.890625 -22.03125 C 61.890625 -15.03125 59.125 -9.429688 53.59375 -5.234375 C 48.070312 -1.046875 40.765625 1.046875 31.671875 1.046875 Z M 31.671875 1.046875 "/></g></g></g></g></g><g transform="matrix(1, 0, 0, 1, 750, 270)"><g clip-path="url(#7caf0a86f9)"><g fill="#f9f8f7" fill-opacity="1"><g transform="translate(-0.00003125, 31.800234)"><g><path d="M 7.078125 -27.953125 C 13.753906 -27.953125 17.09375 -25.382812 17.09375 -20.25 C 17.09375 -18.09375 16.46875 -16.316406 15.21875 -14.921875 C 13.96875 -13.523438 12.253906 -12.726562 10.078125 -12.53125 L 18.984375 0 L 15.171875 0 L 6.71875 -12.265625 L 5.9375 -12.265625 L 5.9375 0 L 2.8125 0 L 2.8125 -27.953125 Z M 5.9375 -15.015625 L 7.296875 -15.015625 C 9.503906 -15.015625 11.171875 -15.421875 12.296875 -16.234375 C 13.421875 -17.054688 13.984375 -18.316406 13.984375 -20.015625 C 13.984375 -21.867188 13.429688 -23.171875 12.328125 -23.921875 C 11.222656 -24.679688 9.632812 -25.0625 7.5625 -25.0625 L 5.9375 -25.0625 Z M 5.9375 -15.015625 "/></g></g></g><g fill="#f9f8f7" fill-opacity="1"><g transform="translate(20.097508, 31.800234)"><g><path d="M 13.125 -29.296875 L 25.6875 0 L 22.25 0 L 18.953125 -7.9375 L 7 -7.9375 L 3.640625 0 L 0.21875 0 Z M 8.265625 -10.828125 L 17.71875 -10.828125 L 13.046875 -22.03125 Z M 5.046875 -27.953125 Z M 5.046875 -27.953125 "/></g></g></g><g fill="#f9f8f7" fill-opacity="1"><g transform="translate(46.016676, 31.800234)"><g><path d="M 6 -27.953125 L 6 0 L 2.890625 0 L 2.890625 -27.953125 Z M 6 -27.953125 "/></g></g></g><g fill="#f9f8f7" fill-opacity="1"><g transform="translate(54.878899, 31.800234)"><g><path d="M 15.5 -22.5 C 14.882812 -23.59375 14.195312 -24.375 13.4375 -24.84375 C 12.6875 -25.3125 11.78125 -25.546875 10.71875 -25.546875 C 9.351562 -25.546875 8.234375 -25.125 7.359375 -24.28125 C 6.484375 -23.445312 6.046875 -22.421875 6.046875 -21.203125 C 6.046875 -20.265625 6.410156 -19.460938 7.140625 -18.796875 C 7.867188 -18.128906 8.75 -17.5625 9.78125 -17.09375 C 10.820312 -16.625 11.765625 -16.210938 12.609375 -15.859375 C 13.453125 -15.515625 14.425781 -15 15.53125 -14.3125 C 16.644531 -13.625 17.5 -12.757812 18.09375 -11.71875 C 18.6875 -10.675781 18.984375 -9.488281 18.984375 -8.15625 C 18.984375 -6.625 18.597656 -5.191406 17.828125 -3.859375 C 17.066406 -2.523438 16.003906 -1.46875 14.640625 -0.6875 C 13.285156 0.09375 11.804688 0.484375 10.203125 0.484375 C 7.992188 0.484375 6.101562 -0.160156 4.53125 -1.453125 C 2.96875 -2.753906 1.953125 -4.519531 1.484375 -6.75 L 4.53125 -7.59375 C 4.769531 -6.0625 5.398438 -4.8125 6.421875 -3.84375 C 7.453125 -2.882812 8.6875 -2.40625 10.125 -2.40625 C 11.675781 -2.40625 13.019531 -2.9375 14.15625 -4 C 15.300781 -5.0625 15.875 -6.347656 15.875 -7.859375 C 15.875 -9.191406 15.441406 -10.285156 14.578125 -11.140625 C 13.710938 -11.992188 12.128906 -12.878906 9.828125 -13.796875 C 7.523438 -14.710938 5.796875 -15.738281 4.640625 -16.875 C 3.492188 -18.007812 2.921875 -19.488281 2.921875 -21.3125 C 2.921875 -23.394531 3.6875 -25.101562 5.21875 -26.4375 C 6.757812 -27.769531 8.601562 -28.4375 10.75 -28.4375 C 12.332031 -28.4375 13.734375 -28.066406 14.953125 -27.328125 C 16.179688 -26.585938 17.191406 -25.507812 17.984375 -24.09375 Z M 15.5 -22.5 "/></g></g></g><g fill="#f9f8f7" fill-opacity="1"><g transform="translate(75.60683, 31.800234)"><g><path d="M 17.3125 -27.953125 L 17.3125 -25.0625 L 5.9375 -25.0625 L 5.9375 -16.765625 L 16.984375 -16.765625 L 16.984375 -13.875 L 5.9375 -13.875 L 5.9375 -2.890625 L 17.3125 -2.890625 L 17.3125 0 L 2.8125 0 L 2.8125 -27.953125 Z M 17.3125 -27.953125 "/></g></g></g><g fill="#f9f8f7" fill-opacity="1"><g transform="translate(95.407751, 31.800234)"><g/></g></g><g fill="#f9f8f7" fill-opacity="1"><g transform="translate(105.716104, 31.800234)"><g><path d="M 20.25 -29.40625 L 29.296875 -7 L 36.640625 -27.953125 L 40 -27.953125 L 29.296875 1.453125 L 20.25 -21.0625 L 11.203125 1.453125 L 0.484375 -27.953125 L 3.859375 -27.953125 L 11.203125 -7 Z M 3.8125 0 Z M 3.8125 0 "/></g></g></g><g fill="#f9f8f7" fill-opacity="1"><g transform="translate(146.170742, 31.800234)"><g><path d="M 6 -27.953125 L 6 0 L 2.890625 0 L 2.890625 -27.953125 Z M 6 -27.953125 "/></g></g></g><g fill="#f9f8f7" fill-opacity="1"><g transform="translate(155.032965, 31.800234)"><g><path d="M 17.0625 -27.953125 L 17.0625 -25.0625 L 10.234375 -25.0625 L 10.234375 0 L 7.125 0 L 7.125 -25.0625 L 0.375 -25.0625 L 0.375 -27.953125 Z M 17.0625 -27.953125 "/></g></g></g><g fill="#f9f8f7" fill-opacity="1"><g transform="translate(172.460743, 31.800234)"><g><path d="M 6.078125 -27.953125 L 6.078125 -16.609375 L 20.390625 -16.609375 L 20.390625 -27.953125 L 23.5 -27.953125 L 23.5 0 L 20.390625 0 L 20.390625 -13.71875 L 6.078125 -13.71875 L 6.078125 0 L 2.96875 0 L 2.96875 -27.953125 Z M 6.078125 -27.953125 "/></g></g></g><g fill="#f9f8f7" fill-opacity="1"><g transform="translate(198.93609, 31.800234)"><g/></g></g><g fill="#f9f8f7" fill-opacity="1"><g transform="translate(210.356847, 31.800234)"><g><path d="M 17.3125 -27.953125 L 17.3125 -25.0625 L 5.9375 -25.0625 L 5.9375 -16.765625 L 16.984375 -16.765625 L 16.984375 -13.875 L 5.9375 -13.875 L 5.9375 -2.890625 L 17.3125 -2.890625 L 17.3125 0 L 2.8125 0 L 2.8125 -27.953125 Z M 17.3125 -27.953125 "/></g></g></g><g fill="#f9f8f7" fill-opacity="1"><g transform="translate(230.157767, 31.800234)"><g><path d="M 4.75 -27.953125 L 10.453125 -17.421875 L 16.171875 -27.953125 L 19.71875 -27.953125 L 12.15625 -14.453125 L 20.4375 0 L 16.875 0 L 10.453125 -11.5 L 4.046875 0 L 0.484375 0 L 8.75 -14.453125 L 1.1875 -27.953125 Z M 4.75 -27.953125 "/></g></g></g><g fill="#f9f8f7" fill-opacity="1"><g transform="translate(250.40364, 31.800234)"><g><path d="M 24.140625 -21.84375 C 22.953125 -23.03125 21.625 -23.941406 20.15625 -24.578125 C 18.6875 -25.222656 17.171875 -25.546875 15.609375 -25.546875 C 13.628906 -25.546875 11.757812 -25.015625 10 -23.953125 C 8.25 -22.890625 6.867188 -21.46875 5.859375 -19.6875 C 4.847656 -17.90625 4.34375 -16.003906 4.34375 -13.984375 C 4.34375 -12.003906 4.851562 -10.109375 5.875 -8.296875 C 6.90625 -6.492188 8.296875 -5.0625 10.046875 -4 C 11.804688 -2.9375 13.6875 -2.40625 15.6875 -2.40625 C 17.195312 -2.40625 18.6875 -2.726562 20.15625 -3.375 C 21.625 -4.019531 22.953125 -4.9375 24.140625 -6.125 L 24.140625 -2.265625 C 22.953125 -1.398438 21.632812 -0.722656 20.1875 -0.234375 C 18.738281 0.242188 17.273438 0.484375 15.796875 0.484375 C 13.328125 0.484375 10.957031 -0.128906 8.6875 -1.359375 C 6.425781 -2.597656 4.613281 -4.332031 3.25 -6.5625 C 1.894531 -8.789062 1.21875 -11.226562 1.21875 -13.875 C 1.21875 -16.488281 1.875 -18.914062 3.1875 -21.15625 C 4.5 -23.394531 6.285156 -25.164062 8.546875 -26.46875 C 10.804688 -27.78125 13.222656 -28.4375 15.796875 -28.4375 C 17.378906 -28.4375 18.921875 -28.175781 20.421875 -27.65625 C 21.929688 -27.132812 23.171875 -26.476562 24.140625 -25.6875 Z M 24.140625 -21.84375 "/></g></g></g><g fill="#f9f8f7" fill-opacity="1"><g transform="translate(276.99026, 31.800234)"><g><path d="M 17.3125 -27.953125 L 17.3125 -25.0625 L 5.9375 -25.0625 L 5.9375 -16.765625 L 16.984375 -16.765625 L 16.984375 -13.875 L 5.9375 -13.875 L 5.9375 -2.890625 L 17.3125 -2.890625 L 17.3125 0 L 2.8125 0 L 2.8125 -27.953125 Z M 17.3125 -27.953125 "/></g></g></g><g fill="#f9f8f7" fill-opacity="1"><g transform="translate(296.79118, 31.800234)"><g><path d="M 5.9375 -27.953125 L 5.9375 -2.890625 L 13.640625 -2.890625 L 13.640625 0 L 2.8125 0 L 2.8125 -27.953125 Z M 5.9375 -27.953125 "/></g></g></g><g fill="#f9f8f7" fill-opacity="1"><g transform="translate(310.696305, 31.800234)"><g><path d="M 5.9375 -27.953125 L 5.9375 -2.890625 L 13.640625 -2.890625 L 13.640625 0 L 2.8125 0 L 2.8125 -27.953125 Z M 5.9375 -27.953125 "/></g></g></g><g fill="#f9f8f7" fill-opacity="1"><g transform="translate(324.601431, 31.800234)"><g><path d="M 17.3125 -27.953125 L 17.3125 -25.0625 L 5.9375 -25.0625 L 5.9375 -16.765625 L 16.984375 -16.765625 L 16.984375 -13.875 L 5.9375 -13.875 L 5.9375 -2.890625 L 17.3125 -2.890625 L 17.3125 0 L 2.8125 0 L 2.8125 -27.953125 Z M 17.3125 -27.953125 "/></g></g></g><g fill="#f9f8f7" fill-opacity="1"><g transform="translate(344.402351, 31.800234)"><g><path d="M 3 -29.140625 L 24.8125 -6.296875 L 24.8125 -27.953125 L 27.921875 -27.953125 L 27.921875 1.265625 L 6.125 -21.546875 L 6.125 0 L 3 0 Z M 3 -29.140625 "/></g></g></g><g fill="#f9f8f7" fill-opacity="1"><g transform="translate(375.327362, 31.800234)"><g><path d="M 24.140625 -21.84375 C 22.953125 -23.03125 21.625 -23.941406 20.15625 -24.578125 C 18.6875 -25.222656 17.171875 -25.546875 15.609375 -25.546875 C 13.628906 -25.546875 11.757812 -25.015625 10 -23.953125 C 8.25 -22.890625 6.867188 -21.46875 5.859375 -19.6875 C 4.847656 -17.90625 4.34375 -16.003906 4.34375 -13.984375 C 4.34375 -12.003906 4.851562 -10.109375 5.875 -8.296875 C 6.90625 -6.492188 8.296875 -5.0625 10.046875 -4 C 11.804688 -2.9375 13.6875 -2.40625 15.6875 -2.40625 C 17.195312 -2.40625 18.6875 -2.726562 20.15625 -3.375 C 21.625 -4.019531 22.953125 -4.9375 24.140625 -6.125 L 24.140625 -2.265625 C 22.953125 -1.398438 21.632812 -0.722656 20.1875 -0.234375 C 18.738281 0.242188 17.273438 0.484375 15.796875 0.484375 C 13.328125 0.484375 10.957031 -0.128906 8.6875 -1.359375 C 6.425781 -2.597656 4.613281 -4.332031 3.25 -6.5625 C 1.894531 -8.789062 1.21875 -11.226562 1.21875 -13.875 C 1.21875 -16.488281 1.875 -18.914062 3.1875 -21.15625 C 4.5 -23.394531 6.285156 -25.164062 8.546875 -26.46875 C 10.804688 -27.78125 13.222656 -28.4375 15.796875 -28.4375 C 17.378906 -28.4375 18.921875 -28.175781 20.421875 -27.65625 C 21.929688 -27.132812 23.171875 -26.476562 24.140625 -25.6875 Z M 24.140625 -21.84375 "/></g></g></g><g fill="#f9f8f7" fill-opacity="1"><g transform="translate(401.913982, 31.800234)"><g><path d="M 17.3125 -27.953125 L 17.3125 -25.0625 L 5.9375 -25.0625 L 5.9375 -16.765625 L 16.984375 -16.765625 L 16.984375 -13.875 L 5.9375 -13.875 L 5.9375 -2.890625 L 17.3125 -2.890625 L 17.3125 0 L 2.8125 0 L 2.8125 -27.953125 Z M 17.3125 -27.953125 "/></g></g></g></g></g></svg>